#!OML:ASF H:\ManfredObstacles\Project 1\Capture day 1\Session 1\Male.ASF
:FULLY-SPECIFIED
:DEGREES
544
root 6.24636 16.7148 -21.1621 -167.256 -8.96434 -178.828
lowerback -11.9873 -2.78997 0.726992
upperback 0.472796 -3.90496 0.619036
thorax 7.2224 -1.90716 -0.460067
lowerneck 2.5105 -3.38544 -6.02993
upperneck -14.4912 -4.37309 12.7633
head -4.26033 -2.9708 5.17694
rclavicle 3.80424e-014 -1.98785e-015
rhumerus -37.9639 -26.8484 -74.6905
rradius 28.2205
rwrist 32.4107
rhand -0.17623 -4.14336
rfingers 7.12502
rthumb 25.4216 -32.4683
lclavicle 3.80424e-014 -1.98785e-015
lhumerus -27.5881 25.2121 77.4463
lradius 13.4109
lwrist -43.5245
lhand -11.0759 7.9751
lfingers 7.12502
lthumb 14.9473 37.4157
rfemur -29.8381 -5.69391 24.2858
rtibia 25.058
rfoot -15.4645 14.3174
rtoes 4.24634
lfemur 8.52508 -1.94769 -13.3204
ltibia 5.40694e-014
lfoot 18.6304 -14.8634
ltoes 18.9614
545
root 6.27071 16.7131 -21.2237 -167.345 -9.14876 -178.908
lowerback -11.7904 -2.75104 0.739036
upperback 0.50037 -3.84681 0.573154
thorax 7.13659 -1.87752 -0.494756
lowerneck 2.64454 -3.3637 -5.90885
upperneck -14.7091 -4.34571 12.618
head -4.35966 -2.96532 5.12201
rclavicle -3.97569e-015 -9.93923e-016
rhumerus -37.8262 -26.6382 -74.9265
rradius 28.2134
rwrist 32.3209
rhand -0.475885 -3.96466
rfingers 7.12502
rthumb 25.1345 -32.3301
lclavicle -3.97569e-015 -9.93923e-016
lhumerus -27.1051 23.9245 78.2959
lradius 13.8161
lwrist -42.5821
lhand -10.8632 7.98395
lfingers 7.12502
lthumb 15.1523 37.4092
rfemur -29.53 -5.57263 24.165
rtibia 25.1671
rfoot -15.9012 14.3322
rtoes 5.10127
lfemur 8.81001 -2.16776 -13.2732
ltibia -6.36111e-015
lfoot 18.5304 -15.1314
ltoes 17.2273
546
root 6.29487 16.7157 -21.2827 -167.341 -9.3308 -178.977
lowerback -11.634 -2.66741 0.818322
upperback 0.434748 -3.73859 0.49003
thorax 6.96804 -1.82285 -0.597035
lowerneck 2.68954 -3.42553 -5.74708
upperneck -14.7314 -4.42959 12.4418
head -4.3759 -3.00199 5.04318
rclavicle 4.65405e-014 -3.37934e-015
rhumerus -37.864 -26.5421 -75.0718
rradius 28.192
rwrist 32.1081
rhand -0.229254 -4.0447
rfingers 7.12502
rthumb 25.3708 -32.3768
lclavicle 4.65405e-014 -3.37934e-015
lhumerus -26.654 22.3589 79.1816
lradius 14.1781
lwrist -41.4941
lhand -10.6966 7.97523
lfingers 7.12502
lthumb 15.3127 37.3883
rfemur -29.2762 -5.43294 24.0599
rtibia 25.1644
rfoot -16.2104 14.3315
rtoes 6.15148
lfemur 8.95488 -2.36963 -13.1922
ltibia 3.81667e-014
lfoot 18.7939 -15.0633
ltoes 16.4985
547
root 6.32535 16.7162 -21.3424 -167.245 -9.45995 -179.628
lowerback -11.6276 -2.74539 0.0633458
upperback 0.465779 -3.72826 0.379443
thorax 7.03838 -1.84117 -0.289996
lowerneck 2.6476 -3.36675 -5.81346
upperneck -14.8237 -4.35406 12.4262
head -4.40259 -2.96389 5.04971
rclavicle 4.16951e-014 -4.37326e-015
rhumerus -37.6744 -26.4287 -75.2055
rradius 28.0884
rwrist 32.1089
rhand -0.0836235 -3.94036
rfingers 7.12502
rthumb 25.5103 -32.2526
lclavicle 4.16951e-014 -4.37326e-015
lhumerus -26.0742 21.3296 80.1007
lradius 14.4992
lwrist -40.5621
lhand -10.6832 7.92511
lfingers 7.12502
lthumb 15.3257 37.3372
rfemur -29.005 -5.48109 23.4269
rtibia 25.1446
rfoot -16.372 14.1576
rtoes 6.61099
lfemur 9.057 -2.64392 -13.7286
ltibia -3.18055e-015
lfoot 19.271 -14.6258
ltoes 17.1294
548
root 6.34748 16.7186 -21.3998 -167.037 -9.79413 -178.978
lowerback -11.9317 -2.63193 0.844714
upperback 0.389032 -3.70763 0.565584
thorax 7.09167 -1.80818 -0.541415
lowerneck 2.52677 -3.37384 -5.6784
upperneck -14.7413 -4.36622 12.2648
head -4.36443 -2.95892 4.9696
rclavicle 5.27525e-014 5.76476e-015
rhumerus -37.6513 -26.3984 -75.2702
rradius 28.0192
rwrist 32.2236
rhand -0.212509 -3.77011
rfingers 7.12502
rthumb 25.3868 -32.1
lclavicle 5.27525e-014 5.76476e-015
lhumerus -25.6633 19.7294 81.1655
lradius 15.1172
lwrist -39.117
lhand -10.7185 7.91653
lfingers 7.12502
lthumb 15.2916 37.3312
rfemur -29.0713 -5.51815 24.2732
rtibia 25.0886
rfoot -16.3872 14.114
rtoes 6.96536
lfemur 8.83765 -2.79605 -12.8147
ltibia -1.27222e-014
lfoot 19.4458 -14.2064
ltoes 18.1222
